<?xml version="1.0" encoding="utf-8"?>
<!-- Generator: Adobe Illustrator 16.0.0, SVG Export Plug-In . SVG Version: 6.00 Build 0)  -->
<!DOCTYPE svg PUBLIC "-//W3C//DTD SVG 1.1//EN" "http://www.w3.org/Graphics/SVG/1.1/DTD/svg11.dtd">
<svg version="1.1" id="Layer_1" xmlns="http://www.w3.org/2000/svg" xmlns:xlink="http://www.w3.org/1999/xlink" x="0px" y="0px"
	 width="254.87px" height="186.705px" viewBox="0 0 254.87 186.705" enable-background="new 0 0 254.87 186.705"
	 xml:space="preserve">
<g>
	<g>
		<path fill="#FFFFFF" d="M112.669,72.56c0-14.347,11.627-25.972,25.971-25.972c14.342,0,25.971,11.629,25.971,25.968
			c0,14.343-11.629,25.973-25.972,25.973C124.297,98.528,112.669,86.898,112.669,72.56z"/>
		<path fill="#FFFFFF" d="M91.861,34.32c0-10.252,8.311-18.556,18.557-18.559c10.252,0,18.562,8.307,18.562,18.559
			c-0.003,10.253-8.31,18.558-18.559,18.558C100.17,52.878,91.861,44.573,91.861,34.32z"/>
		<circle fill="#FFFFFF" cx="132.265" cy="10.109" r="10.11"/>
	</g>
	<g>
		<path fill="#FFFFFF" d="M0.873,165.49v-21.834h3.684v9.465h10.84v-9.465h3.685v21.834h-3.685v-8.935H4.557v8.935H0.873z"/>
		<path fill="#FFFFFF" d="M35.012,160.523l-2.188,4.967h-3.936l9.619-21.834h3.936l9.621,21.834h-3.936l-2.186-4.967H35.012z
			 M44.443,157.118l-3.967-8.996l-3.967,8.996H44.443z"/>
		<path fill="#FFFFFF" d="M79.3,150.746c0,3.602-1.571,5.872-4.714,6.811l5.715,7.934h-4.686l-5.217-7.341h-4.842v7.341h-3.686
			v-21.834h8.121c3.332,0,5.717,0.562,7.154,1.686C78.582,146.467,79.3,148.27,79.3,150.746z M74.396,153.839
			c0.751-0.645,1.125-1.682,1.125-3.108c0-1.424-0.387-2.405-1.156-2.936c-0.771-0.529-2.145-0.797-4.122-0.797h-4.687v7.809h4.592
			C72.229,154.807,73.646,154.484,74.396,153.839z"/>
		<path fill="#FFFFFF" d="M95.074,165.49H91.39v-21.834h5.745l6.592,13.713l6.59-13.713h5.716v21.834h-3.685v-17.056l-7.621,15.149
			h-2.062l-7.59-15.149V165.49z"/>
		<path fill="#FFFFFF" d="M147.143,162.477c-2.207,2.154-4.936,3.231-8.185,3.231c-3.248,0-5.976-1.077-8.183-3.231
			c-2.207-2.156-3.311-4.842-3.311-8.061c0-3.216,1.104-5.902,3.311-8.059c2.207-2.154,4.935-3.232,8.183-3.232
			c3.249,0,5.978,1.078,8.185,3.232c2.205,2.156,3.311,4.843,3.311,8.059C150.453,157.635,149.348,160.32,147.143,162.477z
			 M144.439,148.811c-1.489-1.541-3.315-2.312-5.481-2.312s-3.993,0.771-5.482,2.312c-1.487,1.541-2.231,3.408-2.231,5.605
			s0.744,4.066,2.231,5.607c1.489,1.54,3.316,2.312,5.482,2.312s3.992-0.772,5.481-2.312c1.488-1.541,2.234-3.41,2.234-5.607
			S145.928,150.352,144.439,148.811z"/>
		<path fill="#FFFFFF" d="M178.252,143.656h3.686v21.834h-3.999l-12.368-15.93v15.93h-3.687v-21.834h3.687l12.682,16.305V143.656z"
			/>
		<path fill="#FFFFFF" d="M194.774,143.656h3.685v21.834h-3.685V143.656z"/>
		<path fill="#FFFFFF" d="M222.447,147.028h-12.306v-3.372h17.43v2.875l-12.683,15.461v0.094h12.87v3.404h-18.023v-2.842
			l12.712-15.525V147.028z"/>
		<path fill="#FFFFFF" d="M254.494,143.656v3.467h-11.65v5.779h10.463v3.278h-10.463v5.842h12.026v3.468h-15.711v-21.834H254.494z"
			/>
	</g>
	<g>
		<path fill="#FFFFFF" d="M3.633,186.664h-0.82v-2.461L0,179.4h0.861l2.356,3.787l2.325-3.787h0.85l-2.76,4.773V186.664z"/>
		<path fill="#FFFFFF" d="M18.215,183.033c0,2.045-1.682,3.672-3.801,3.672c-2.127,0-3.81-1.627-3.81-3.672
			c0-2.056,1.683-3.654,3.81-3.654C16.533,179.379,18.215,180.986,18.215,183.033z M11.446,183.033c0,1.598,1.349,2.873,2.968,2.873
			c1.621,0,2.949-1.275,2.949-2.873c0-1.6-1.328-2.865-2.949-2.865C12.795,180.168,11.446,181.434,11.446,183.033z"/>
		<path fill="#FFFFFF" d="M29.814,183.676c0,1.889-1.141,3.029-3.041,3.029c-1.912,0-3.062-1.141-3.062-3.029V179.4h0.828v4.275
			c0,1.41,0.853,2.23,2.234,2.23c1.381,0,2.211-0.82,2.211-2.23V179.4h0.83V183.676z"/>
		<path fill="#FFFFFF" d="M39.246,184.351c-0.157,0.009-0.324,0.021-0.49,0.021h-1.93v2.293h-0.83V179.4h2.76
			c1.817,0,2.865,0.892,2.865,2.436c0,1.205-0.58,2.016-1.628,2.359l1.702,2.469H40.75L39.246,184.351z M38.756,183.572
			c1.319,0,2.066-0.582,2.066-1.715c0-1.101-0.747-1.66-2.066-1.66h-1.93v3.375H38.756z"/>
		<path fill="#FFFFFF" d="M64.221,186.664l-0.012-5.988l-2.646,5.219h-0.498l-2.636-5.219v5.988h-0.788V179.4h1.025l2.659,5.23
			l2.646-5.23h1.018v7.264H64.221z"/>
		<path fill="#FFFFFF" d="M77.283,183.676c0,1.889-1.143,3.029-3.043,3.029c-1.908,0-3.06-1.141-3.06-3.029V179.4h0.829v4.275
			c0,1.41,0.852,2.23,2.23,2.23c1.382,0,2.213-0.82,2.213-2.23V179.4h0.83V183.676z"/>
		<path fill="#FFFFFF" d="M87.928,180.041l-0.352,0.779c-0.654-0.436-1.422-0.611-2.004-0.611c-0.934,0-1.547,0.352-1.547,0.965
			c0,1.867,4.09,0.893,4.08,3.529c0,1.215-1.068,1.99-2.626,1.99c-1.06,0-2.099-0.453-2.782-1.109l0.373-0.746
			c0.676,0.654,1.6,1.027,2.42,1.027c1.049,0,1.701-0.426,1.701-1.121c0.011-1.909-4.079-0.893-4.079-3.498
			c0-1.143,1.007-1.878,2.512-1.878C86.466,179.368,87.326,179.637,87.928,180.041z"/>
		<path fill="#FFFFFF" d="M93.955,186.664V179.4h0.83v7.264H93.955z"/>
		<path fill="#FFFFFF" d="M106.896,180.438l-0.498,0.633c-0.56-0.57-1.35-0.913-2.148-0.913c-1.641,0-2.957,1.265-2.957,2.863
			c0,1.589,1.316,2.865,2.957,2.865c0.799,0,1.578-0.331,2.148-0.87l0.509,0.568c-0.717,0.677-1.69,1.121-2.7,1.121
			c-2.096,0-3.756-1.627-3.756-3.685c0-2.034,1.682-3.642,3.788-3.642C105.236,179.379,106.203,179.782,106.896,180.438z"/>
		<path fill="#FFFFFF" d="M113.152,184.827l-0.81,1.837h-0.883l3.259-7.264h0.863l3.248,7.264h-0.902l-0.811-1.837H113.152z
			 M115.123,180.344l-1.617,3.684h3.258L115.123,180.344z"/>
		<path fill="#FFFFFF" d="M128.136,185.877v0.787h-4.017V179.4h0.83v6.477H128.136z"/>
		<path fill="#FFFFFF" d="M144.454,180.197v2.555h3.397v0.8h-3.397v3.112h-0.828V179.4h4.618v0.797H144.454z"/>
		<path fill="#FFFFFF" d="M153.615,186.664V179.4h0.833v7.264H153.615z"/>
		<path fill="#FFFFFF" d="M165.988,186.664l-4.36-5.832v5.832h-0.831V179.4h0.861l4.361,5.844V179.4h0.818v7.264H165.988z"/>
		<path fill="#FFFFFF" d="M179,183.115v2.637c-0.716,0.571-1.724,0.953-2.699,0.953c-2.107,0-3.79-1.627-3.79-3.672
			c0-2.047,1.694-3.654,3.833-3.654c1.006,0,1.981,0.383,2.678,0.996l-0.479,0.623c-0.592-0.529-1.391-0.841-2.199-0.841
			c-1.66,0-2.991,1.276-2.991,2.876c0,1.609,1.339,2.885,2.999,2.885c0.654,0,1.35-0.229,1.911-0.613v-2.189H179z"/>
		<path fill="#FFFFFF" d="M185.994,180.197v2.388h3.662v0.8h-3.662v2.492h4.234v0.787h-5.067V179.4h4.93v0.797H185.994z"/>
		<path fill="#FFFFFF" d="M199.316,184.351c-0.156,0.009-0.321,0.021-0.488,0.021h-1.93v2.293h-0.832V179.4h2.762
			c1.815,0,2.864,0.892,2.864,2.436c0,1.205-0.581,2.016-1.63,2.359l1.703,2.469h-0.945L199.316,184.351z M198.828,183.572
			c1.318,0,2.064-0.582,2.064-1.715c0-1.101-0.746-1.66-2.064-1.66h-1.93v3.375H198.828z"/>
		<path fill="#FFFFFF" d="M210.449,179.4c1.796,0,2.832,0.892,2.832,2.436c0,1.611-1.036,2.535-2.832,2.535h-1.9v2.293h-0.829V179.4
			H210.449z M208.549,183.572h1.869c1.309,0,2.064-0.582,2.064-1.715c0-1.101-0.756-1.66-2.064-1.66h-1.869V183.572z"/>
		<path fill="#FFFFFF" d="M222.06,184.351c-0.155,0.009-0.321,0.021-0.487,0.021h-1.93v2.293h-0.831V179.4h2.761
			c1.818,0,2.865,0.892,2.865,2.436c0,1.205-0.582,2.016-1.631,2.359l1.703,2.469h-0.944L222.06,184.351z M221.572,183.572
			c1.318,0,2.067-0.582,2.067-1.715c0-1.101-0.749-1.66-2.067-1.66h-1.93v3.375H221.572z"/>
		<path fill="#FFFFFF" d="M230.465,186.664V179.4h0.83v7.264H230.465z"/>
		<path fill="#FFFFFF" d="M242.835,186.664l-4.359-5.832v5.832h-0.831V179.4h0.861l4.359,5.844V179.4h0.818v7.264H242.835z"/>
		<path fill="#FFFFFF" d="M252.255,180.197v6.467h-0.831v-6.467h-2.365V179.4h5.574v0.797H252.255z"/>
	</g>
</g>
</svg>
